<mxfile host="app.diagrams.net" modified="2024-03-03T22:12:14.324Z" agent="Mozilla/5.0 (Windows NT 10.0; Win64; x64) AppleWebKit/537.36 (KHTML, like Gecko) Chrome/122.0.0.0 Safari/537.36" etag="N7LIv80jYHmm50h_Mpt6" version="24.0.1" type="google">
  <diagram name="Page-1" id="2YBvvXClWsGukQMizWep">
    <mxGraphModel grid="1" page="1" gridSize="10" guides="1" tooltips="1" connect="1" arrows="1" fold="1" pageScale="1" pageWidth="850" pageHeight="1100" math="0" shadow="0">
      <root>
        <mxCell id="0" />
        <mxCell id="1" parent="0" />
        <mxCell id="8mbKC0PbR0wMGEWIr_28-14" value="" style="endArrow=classic;html=1;rounded=0;shape=flexArrow;entryX=1;entryY=0.5;entryDx=0;entryDy=0;entryPerimeter=0;fillColor=#FF6666;strokeColor=none;" edge="1" parent="1">
          <mxGeometry width="50" height="50" relative="1" as="geometry">
            <mxPoint x="400" y="1020" as="sourcePoint" />
            <mxPoint x="230.91" y="889.9999999999998" as="targetPoint" />
            <Array as="points">
              <mxPoint x="400" y="960" />
              <mxPoint x="229.91" y="958" />
            </Array>
          </mxGeometry>
        </mxCell>
        <mxCell id="CK8r0wE4NduhVeLigVdj-147" value="" style="endArrow=classic;startArrow=classic;html=1;rounded=0;shape=flexArrow;width=3.5555555555555554;startSize=5.4;startWidth=10.716049382716049;endWidth=10.716049382716049;endSize=5.4;fillColor=#FF6666;strokeColor=none;" edge="1" parent="1">
          <mxGeometry width="50" height="50" relative="1" as="geometry">
            <mxPoint x="492.05999999999995" y="80" as="sourcePoint" />
            <mxPoint x="491.9699999999999" y="40" as="targetPoint" />
          </mxGeometry>
        </mxCell>
        <mxCell id="CK8r0wE4NduhVeLigVdj-146" value="" style="endArrow=classic;startArrow=classic;html=1;rounded=0;shape=flexArrow;width=3.5555555555555554;startSize=5.4;startWidth=10.716049382716049;endWidth=10.716049382716049;endSize=5.4;fillColor=#FF6666;strokeColor=none;" edge="1" parent="1">
          <mxGeometry width="50" height="50" relative="1" as="geometry">
            <mxPoint x="429.78" y="80" as="sourcePoint" />
            <mxPoint x="429.68999999999994" y="40" as="targetPoint" />
          </mxGeometry>
        </mxCell>
        <mxCell id="CK8r0wE4NduhVeLigVdj-145" value="" style="endArrow=classic;startArrow=classic;html=1;rounded=0;shape=flexArrow;width=3.5555555555555554;startSize=5.4;startWidth=10.716049382716049;endWidth=10.716049382716049;endSize=5.4;fillColor=#FF6666;strokeColor=none;" edge="1" parent="1">
          <mxGeometry width="50" height="50" relative="1" as="geometry">
            <mxPoint x="372.28" y="80" as="sourcePoint" />
            <mxPoint x="372.18999999999994" y="40" as="targetPoint" />
          </mxGeometry>
        </mxCell>
        <mxCell id="CK8r0wE4NduhVeLigVdj-132" value="" style="endArrow=classic;html=1;rounded=0;shape=flexArrow;entryX=0.987;entryY=0.435;entryDx=0;entryDy=0;entryPerimeter=0;fillColor=#FF6666;strokeColor=none;width=7.333333333333333;endSize=5.8133333333333335;" edge="1" parent="1">
          <mxGeometry width="50" height="50" relative="1" as="geometry">
            <mxPoint x="754.12" y="240" as="sourcePoint" />
            <mxPoint x="511.78000000000037" y="109.15000000000003" as="targetPoint" />
            <Array as="points">
              <mxPoint x="754.21" y="110" />
            </Array>
          </mxGeometry>
        </mxCell>
        <mxCell id="CK8r0wE4NduhVeLigVdj-130" value="" style="endArrow=classic;html=1;rounded=0;shape=flexArrow;width=10;endSize=6.93;endWidth=11.428571428571429;fillColor=#FF6666;strokeColor=none;" edge="1" parent="1">
          <mxGeometry width="50" height="50" relative="1" as="geometry">
            <mxPoint x="754" y="540" as="sourcePoint" />
            <mxPoint x="754" y="280" as="targetPoint" />
            <Array as="points">
              <mxPoint x="754" y="460" />
              <mxPoint x="754" y="440" />
            </Array>
          </mxGeometry>
        </mxCell>
        <mxCell id="CK8r0wE4NduhVeLigVdj-126" value="" style="endArrow=classic;html=1;rounded=0;shape=flexArrow;endWidth=9.52662721893491;endSize=4.976923076923077;width=4.615384615384615;fillColor=#FF6666;strokeColor=none;" edge="1" parent="1">
          <mxGeometry width="50" height="50" relative="1" as="geometry">
            <mxPoint x="521.16" y="150" as="sourcePoint" />
            <mxPoint x="580" y="290" as="targetPoint" />
            <Array as="points">
              <mxPoint x="660" y="150" />
              <mxPoint x="660" y="290" />
            </Array>
          </mxGeometry>
        </mxCell>
        <mxCell id="CK8r0wE4NduhVeLigVdj-123" value="" style="endArrow=classic;html=1;rounded=0;shape=flexArrow;entryX=0.053;entryY=0.42;entryDx=0;entryDy=0;entryPerimeter=0;width=4;endSize=3.373333333333333;endWidth=10.666666666666666;fillColor=#FF6666;strokeColor=none;exitX=-0.001;exitY=0.744;exitDx=0;exitDy=0;exitPerimeter=0;" edge="1" parent="1" source="CK8r0wE4NduhVeLigVdj-72" target="CK8r0wE4NduhVeLigVdj-56">
          <mxGeometry width="50" height="50" relative="1" as="geometry">
            <mxPoint x="339.90999999999997" y="110" as="sourcePoint" />
            <mxPoint x="270.09000000000003" y="290" as="targetPoint" />
            <Array as="points">
              <mxPoint x="220" y="137" />
              <mxPoint x="220" y="290" />
            </Array>
          </mxGeometry>
        </mxCell>
        <mxCell id="CK8r0wE4NduhVeLigVdj-118" value="" style="endArrow=classic;html=1;rounded=0;shape=flexArrow;exitX=0.489;exitY=0.963;exitDx=0;exitDy=0;exitPerimeter=0;fillColor=#FF6666;strokeColor=none;endWidth=9.142857142857142;endSize=6.7870967741935475;width=3.8709677419354835;" edge="1" parent="1" source="CK8r0wE4NduhVeLigVdj-59">
          <mxGeometry width="50" height="50" relative="1" as="geometry">
            <mxPoint x="324.91" y="320" as="sourcePoint" />
            <mxPoint x="220" y="640" as="targetPoint" />
            <Array as="points">
              <mxPoint x="324.91" y="380" />
              <mxPoint x="220" y="380" />
              <mxPoint x="220" y="590" />
            </Array>
          </mxGeometry>
        </mxCell>
        <mxCell id="CK8r0wE4NduhVeLigVdj-116" value="" style="endArrow=classic;html=1;rounded=0;shape=flexArrow;fillColor=#FF6666;strokeColor=none;width=6.086956521739131;endSize=5.511111111111111;endWidth=7.96135265700483;exitX=0.39;exitY=0.945;exitDx=0;exitDy=0;exitPerimeter=0;" edge="1" parent="1" source="CK8r0wE4NduhVeLigVdj-72" target="CK8r0wE4NduhVeLigVdj-59">
          <mxGeometry width="50" height="50" relative="1" as="geometry">
            <mxPoint x="411.91" y="160" as="sourcePoint" />
            <mxPoint x="329.91" y="260" as="targetPoint" />
            <Array as="points">
              <mxPoint x="409.91" y="190" />
              <mxPoint x="324.91" y="190" />
            </Array>
          </mxGeometry>
        </mxCell>
        <mxCell id="CK8r0wE4NduhVeLigVdj-113" value="" style="endArrow=classic;html=1;rounded=0;shape=flexArrow;exitX=0.474;exitY=0.917;exitDx=0;exitDy=0;exitPerimeter=0;fillColor=#FF6666;strokeColor=none;endWidth=8.695652173913045;endSize=6.941935483870967;width=5.161290322580645;entryX=0.083;entryY=0.815;entryDx=0;entryDy=0;entryPerimeter=0;" edge="1" parent="1" target="CK8r0wE4NduhVeLigVdj-8">
          <mxGeometry width="50" height="50" relative="1" as="geometry">
            <mxPoint x="553.1550000000001" y="318.35" as="sourcePoint" />
            <mxPoint x="509.91" y="620" as="targetPoint" />
            <Array as="points">
              <mxPoint x="552.91" y="362.5" />
              <mxPoint x="552.91" y="392.5" />
              <mxPoint x="553" y="430" />
              <mxPoint x="553" y="460" />
              <mxPoint x="553" y="570" />
              <mxPoint x="553" y="610" />
            </Array>
          </mxGeometry>
        </mxCell>
        <mxCell id="CK8r0wE4NduhVeLigVdj-111" value="" style="endArrow=classic;html=1;rounded=0;shape=flexArrow;entryX=0.426;entryY=0.1;entryDx=0;entryDy=0;entryPerimeter=0;exitX=0.729;exitY=1.054;exitDx=0;exitDy=0;exitPerimeter=0;fillColor=#FF6666;strokeColor=none;width=6.086956521739131;endSize=5.511111111111111;endWidth=7.96135265700483;" edge="1" parent="1" source="CK8r0wE4NduhVeLigVdj-73" target="CK8r0wE4NduhVeLigVdj-55">
          <mxGeometry width="50" height="50" relative="1" as="geometry">
            <mxPoint x="461.78000000000003" y="160" as="sourcePoint" />
            <mxPoint x="549.91" y="230" as="targetPoint" />
            <Array as="points">
              <mxPoint x="461.78000000000003" y="190" />
              <mxPoint x="549.91" y="190" />
            </Array>
          </mxGeometry>
        </mxCell>
        <mxCell id="CK8r0wE4NduhVeLigVdj-1" value="" style="pointerEvents=1;verticalLabelPosition=bottom;shadow=0;dashed=0;align=center;html=1;verticalAlign=top;shape=mxgraph.electrical.signal_sources.source;aspect=fixed;points=[[0.5,0,0],[1,0.5,0],[0.5,1,0],[0,0.5,0]];elSignalType=ac;strokeColor=#FF6666;" vertex="1" parent="1">
          <mxGeometry x="372.41" y="1010" width="60" height="60" as="geometry" />
        </mxCell>
        <mxCell id="CK8r0wE4NduhVeLigVdj-4" value="&lt;font style=&quot;font-size: 18px;&quot; color=&quot;#ff6666&quot;&gt;&lt;b&gt;230V&lt;/b&gt;&lt;/font&gt;" style="text;strokeColor=none;align=center;fillColor=none;html=1;verticalAlign=middle;whiteSpace=wrap;rounded=0;" vertex="1" parent="1">
          <mxGeometry x="432.41" y="1020" width="60" height="40" as="geometry" />
        </mxCell>
        <mxCell id="CK8r0wE4NduhVeLigVdj-85" style="edgeStyle=orthogonalEdgeStyle;rounded=0;orthogonalLoop=1;jettySize=auto;html=1;strokeColor=none;fillColor=#FF6666;shape=flexArrow;width=4.516129032258064;endSize=5.980645161290322;endWidth=9.989594172736732;" edge="1" parent="1" source="CK8r0wE4NduhVeLigVdj-8">
          <mxGeometry relative="1" as="geometry">
            <mxPoint x="420" y="690" as="targetPoint" />
            <Array as="points">
              <mxPoint x="440" y="690" />
            </Array>
          </mxGeometry>
        </mxCell>
        <mxCell id="CK8r0wE4NduhVeLigVdj-8" value="" style="verticalLabelPosition=bottom;verticalAlign=top;html=1;shape=mxgraph.basic.rect;fillColor2=none;strokeWidth=1;size=30;indent=100;rotation=90;fillColor=#FF6666;strokeColor=none;" vertex="1" parent="1">
          <mxGeometry x="529.9100000000001" y="622.5" width="120" height="135" as="geometry" />
        </mxCell>
        <mxCell id="CK8r0wE4NduhVeLigVdj-31" value="&lt;font style=&quot;font-size: 14px;&quot; color=&quot;#ff6666&quot;&gt;&lt;b&gt;led&lt;br&gt;strip&lt;/b&gt;&lt;/font&gt;&lt;div&gt;&lt;font style=&quot;font-size: 14px;&quot; color=&quot;#ff6666&quot;&gt;&lt;b&gt;&lt;br&gt;&lt;/b&gt;&lt;/font&gt;&lt;/div&gt;&lt;div&gt;&lt;font style=&quot;font-size: 14px;&quot; color=&quot;#ff6666&quot;&gt;&lt;b&gt;5V&lt;/b&gt;&lt;/font&gt;&lt;/div&gt;" style="text;html=1;align=center;verticalAlign=middle;resizable=0;points=[];autosize=1;strokeColor=none;fillColor=#FFFFFF;" vertex="1" parent="1">
          <mxGeometry x="564.91" y="650" width="50" height="80" as="geometry" />
        </mxCell>
        <mxCell id="CK8r0wE4NduhVeLigVdj-61" value="" style="group" connectable="0" vertex="1" parent="1">
          <mxGeometry x="289.91" y="270" width="70" height="50" as="geometry" />
        </mxCell>
        <mxCell id="CK8r0wE4NduhVeLigVdj-56" value="" style="verticalLabelPosition=bottom;verticalAlign=top;html=1;shape=mxgraph.basic.rect;fillColor2=none;strokeWidth=1;size=20;indent=5;fillColor=#CCCCCC;strokeColor=none;" vertex="1" parent="CK8r0wE4NduhVeLigVdj-61">
          <mxGeometry width="70" height="50" as="geometry" />
        </mxCell>
        <mxCell id="CK8r0wE4NduhVeLigVdj-59" value="&lt;font color=&quot;#ffffff&quot;&gt;&lt;b&gt;level&lt;br&gt;shifter&lt;/b&gt;&lt;/font&gt;" style="text;html=1;align=center;verticalAlign=middle;resizable=0;points=[];autosize=1;strokeColor=none;fillColor=none;" vertex="1" parent="CK8r0wE4NduhVeLigVdj-61">
          <mxGeometry x="5" y="5" width="60" height="40" as="geometry" />
        </mxCell>
        <mxCell id="CK8r0wE4NduhVeLigVdj-62" value="" style="group" connectable="0" vertex="1" parent="1">
          <mxGeometry x="521.16" y="270" width="67.5" height="50" as="geometry" />
        </mxCell>
        <mxCell id="CK8r0wE4NduhVeLigVdj-55" value="" style="verticalLabelPosition=bottom;verticalAlign=top;html=1;shape=mxgraph.basic.rect;fillColor2=none;strokeWidth=1;size=20;indent=5;fillColor=#CCCCCC;strokeColor=none;" vertex="1" parent="CK8r0wE4NduhVeLigVdj-62">
          <mxGeometry width="67.5" height="50" as="geometry" />
        </mxCell>
        <mxCell id="CK8r0wE4NduhVeLigVdj-60" value="&lt;font color=&quot;#ffffff&quot;&gt;&lt;b&gt;level&lt;br&gt;shifter&lt;/b&gt;&lt;/font&gt;" style="text;html=1;align=center;verticalAlign=middle;resizable=0;points=[];autosize=1;strokeColor=none;fillColor=none;" vertex="1" parent="CK8r0wE4NduhVeLigVdj-62">
          <mxGeometry x="3.75" y="5" width="60" height="40" as="geometry" />
        </mxCell>
        <mxCell id="CK8r0wE4NduhVeLigVdj-72" value="" style="verticalLabelPosition=bottom;verticalAlign=top;html=1;shape=mxgraph.basic.rect;fillColor2=none;strokeWidth=1;size=20;indent=5;fillColor=#FFE599;strokeColor=none;" vertex="1" parent="1">
          <mxGeometry x="339.91" y="70" width="180" height="90" as="geometry" />
        </mxCell>
        <mxCell id="CK8r0wE4NduhVeLigVdj-73" value="&lt;font color=&quot;#ffd966&quot; style=&quot;font-size: 24px;&quot;&gt;&lt;b style=&quot;&quot;&gt;ESP32-C3&lt;br&gt;controller&lt;/b&gt;&lt;/font&gt;" style="text;html=1;align=center;verticalAlign=middle;resizable=0;points=[];autosize=1;strokeColor=none;fillColor=#FFFFFF;" vertex="1" parent="1">
          <mxGeometry x="359.91" y="80" width="140" height="70" as="geometry" />
        </mxCell>
        <mxCell id="CK8r0wE4NduhVeLigVdj-74" value="" style="group" connectable="0" vertex="1" parent="1">
          <mxGeometry x="720" y="240" width="67.5" height="50" as="geometry" />
        </mxCell>
        <mxCell id="CK8r0wE4NduhVeLigVdj-75" value="" style="verticalLabelPosition=bottom;verticalAlign=top;html=1;shape=mxgraph.basic.rect;fillColor2=none;strokeWidth=1;size=20;indent=5;fillColor=#CCCCCC;strokeColor=none;" vertex="1" parent="CK8r0wE4NduhVeLigVdj-74">
          <mxGeometry width="67.5" height="50" as="geometry" />
        </mxCell>
        <mxCell id="CK8r0wE4NduhVeLigVdj-76" value="&lt;font color=&quot;#ffffff&quot;&gt;&lt;b&gt;level&lt;br&gt;shifter&lt;/b&gt;&lt;/font&gt;" style="text;html=1;align=center;verticalAlign=middle;resizable=0;points=[];autosize=1;strokeColor=none;fillColor=none;" vertex="1" parent="CK8r0wE4NduhVeLigVdj-74">
          <mxGeometry x="3.75" y="5" width="60" height="40" as="geometry" />
        </mxCell>
        <mxCell id="CK8r0wE4NduhVeLigVdj-88" value="&lt;b&gt;&lt;font color=&quot;#ff6666&quot;&gt;+&lt;/font&gt;&lt;/b&gt;&lt;div&gt;&lt;font style=&quot;&quot; color=&quot;#ff6666&quot;&gt;JST-SM&lt;/font&gt;&lt;/div&gt;" style="text;html=1;align=center;verticalAlign=middle;resizable=0;points=[];autosize=1;strokeColor=none;fillColor=none;" vertex="1" parent="1">
          <mxGeometry x="639.91" y="582.5" width="70" height="40" as="geometry" />
        </mxCell>
        <mxCell id="CK8r0wE4NduhVeLigVdj-89" value="&lt;font color=&quot;#ff6666&quot;&gt;&lt;b&gt;-&lt;/b&gt;&lt;/font&gt;&lt;br&gt;&lt;div&gt;&lt;font style=&quot;&quot; color=&quot;#ff6666&quot;&gt;JST-SM&lt;/font&gt;&lt;/div&gt;" style="text;html=1;align=center;verticalAlign=middle;resizable=0;points=[];autosize=1;strokeColor=none;fillColor=none;" vertex="1" parent="1">
          <mxGeometry x="461.78000000000003" y="690" width="70" height="40" as="geometry" />
        </mxCell>
        <mxCell id="CK8r0wE4NduhVeLigVdj-90" value="&lt;b&gt;&lt;font color=&quot;#ff6666&quot;&gt;+&lt;/font&gt;&lt;/b&gt;&lt;div&gt;&lt;font style=&quot;&quot; color=&quot;#ff6666&quot;&gt;JST-SM&lt;/font&gt;&lt;/div&gt;" style="text;html=1;align=center;verticalAlign=middle;resizable=0;points=[];autosize=1;strokeColor=none;fillColor=none;" vertex="1" parent="1">
          <mxGeometry x="279.91" y="582.5" width="70" height="40" as="geometry" />
        </mxCell>
        <mxCell id="CK8r0wE4NduhVeLigVdj-91" value="&lt;font color=&quot;#ff6666&quot;&gt;&lt;b&gt;-&lt;/b&gt;&lt;/font&gt;&lt;br&gt;&lt;div&gt;&lt;font style=&quot;&quot; color=&quot;#ff6666&quot;&gt;JST-SM&lt;/font&gt;&lt;/div&gt;" style="text;html=1;align=center;verticalAlign=middle;resizable=0;points=[];autosize=1;strokeColor=none;fillColor=none;" vertex="1" parent="1">
          <mxGeometry x="100" y="690" width="70" height="40" as="geometry" />
        </mxCell>
        <mxCell id="CK8r0wE4NduhVeLigVdj-97" value="&lt;font color=&quot;#ff6666&quot;&gt;&lt;b&gt;datapin&lt;/b&gt;&lt;/font&gt;&lt;br&gt;&lt;div&gt;&lt;font style=&quot;&quot; color=&quot;#ff6666&quot;&gt;JST-SM&lt;/font&gt;&lt;/div&gt;" style="text;html=1;align=center;verticalAlign=middle;resizable=0;points=[];autosize=1;strokeColor=none;fillColor=none;" vertex="1" parent="1">
          <mxGeometry x="482.4100000000001" y="582.5" width="70" height="40" as="geometry" />
        </mxCell>
        <mxCell id="CK8r0wE4NduhVeLigVdj-99" value="&lt;font color=&quot;#ff6666&quot;&gt;&lt;b&gt;datapin&lt;/b&gt;&lt;/font&gt;&lt;br&gt;&lt;div&gt;&lt;font style=&quot;&quot; color=&quot;#ff6666&quot;&gt;JST-SM&lt;/font&gt;&lt;/div&gt;" style="text;html=1;align=center;verticalAlign=middle;resizable=0;points=[];autosize=1;strokeColor=none;fillColor=none;" vertex="1" parent="1">
          <mxGeometry x="150.00000000000003" y="582.5" width="70" height="40" as="geometry" />
        </mxCell>
        <mxCell id="CK8r0wE4NduhVeLigVdj-100" value="&lt;font color=&quot;#ff6666&quot; style=&quot;font-size: 8px;&quot;&gt;Output pin&lt;/font&gt;" style="text;html=1;align=center;verticalAlign=middle;resizable=0;points=[];autosize=1;strokeColor=none;fillColor=none;" vertex="1" parent="1">
          <mxGeometry x="549.91" y="310" width="60" height="30" as="geometry" />
        </mxCell>
        <mxCell id="CK8r0wE4NduhVeLigVdj-101" value="&lt;font color=&quot;#ff6666&quot; style=&quot;font-size: 12px;&quot;&gt;&lt;i style=&quot;&quot;&gt;&lt;b style=&quot;&quot;&gt;5V&lt;/b&gt;&lt;/i&gt;&lt;/font&gt;" style="text;html=1;align=center;verticalAlign=middle;resizable=0;points=[];autosize=1;strokeColor=none;fillColor=none;" vertex="1" parent="1">
          <mxGeometry x="504.91" y="320" width="40" height="30" as="geometry" />
        </mxCell>
        <mxCell id="CK8r0wE4NduhVeLigVdj-102" value="&lt;font color=&quot;#ff6666&quot; style=&quot;font-size: 12px;&quot;&gt;&lt;i style=&quot;&quot;&gt;&lt;b style=&quot;&quot;&gt;5V&lt;/b&gt;&lt;/i&gt;&lt;/font&gt;" style="text;html=1;align=center;verticalAlign=middle;resizable=0;points=[];autosize=1;strokeColor=none;fillColor=none;" vertex="1" parent="1">
          <mxGeometry x="349.91" y="320" width="40" height="30" as="geometry" />
        </mxCell>
        <mxCell id="CK8r0wE4NduhVeLigVdj-103" value="&lt;font color=&quot;#ff6666&quot; style=&quot;font-size: 8px;&quot;&gt;Input pin&lt;/font&gt;" style="text;html=1;align=center;verticalAlign=middle;resizable=0;points=[];autosize=1;strokeColor=none;fillColor=none;" vertex="1" parent="1">
          <mxGeometry x="329.90999999999997" y="240" width="50" height="30" as="geometry" />
        </mxCell>
        <mxCell id="CK8r0wE4NduhVeLigVdj-108" value="" style="endArrow=classic;html=1;rounded=0;shape=flexArrow;fillColor=#FF6666;strokeColor=none;width=7.096774193548387;endSize=6.7870967741935475;endWidth=10.905306971904265;" edge="1" parent="1">
          <mxGeometry width="50" height="50" relative="1" as="geometry">
            <mxPoint x="641.25" y="540" as="sourcePoint" />
            <mxPoint x="641.25" y="640" as="targetPoint" />
            <Array as="points">
              <mxPoint x="641.25" y="570" />
              <mxPoint x="641.25" y="600" />
            </Array>
          </mxGeometry>
        </mxCell>
        <mxCell id="CK8r0wE4NduhVeLigVdj-112" value="&lt;font color=&quot;#ff6666&quot; style=&quot;font-size: 12px;&quot;&gt;&lt;i style=&quot;&quot;&gt;&lt;b style=&quot;&quot;&gt;3.3V&lt;/b&gt;&lt;/i&gt;&lt;/font&gt;" style="text;html=1;align=center;verticalAlign=middle;resizable=0;points=[];autosize=1;strokeColor=none;fillColor=none;" vertex="1" parent="1">
          <mxGeometry x="449.91" y="190" width="50" height="30" as="geometry" />
        </mxCell>
        <mxCell id="CK8r0wE4NduhVeLigVdj-115" value="&lt;font color=&quot;#ff6666&quot; style=&quot;font-size: 8px;&quot;&gt;Input pin&lt;/font&gt;" style="text;html=1;align=center;verticalAlign=middle;resizable=0;points=[];autosize=1;strokeColor=none;fillColor=none;" vertex="1" parent="1">
          <mxGeometry x="499.91" y="240" width="50" height="30" as="geometry" />
        </mxCell>
        <mxCell id="CK8r0wE4NduhVeLigVdj-119" value="&lt;font color=&quot;#ff6666&quot; style=&quot;font-size: 8px;&quot;&gt;Output pin&lt;/font&gt;" style="text;html=1;align=center;verticalAlign=middle;resizable=0;points=[];autosize=1;strokeColor=none;fillColor=none;" vertex="1" parent="1">
          <mxGeometry x="264.91" y="310" width="60" height="30" as="geometry" />
        </mxCell>
        <mxCell id="CK8r0wE4NduhVeLigVdj-120" value="&lt;font color=&quot;#ff6666&quot; style=&quot;font-size: 12px;&quot;&gt;&lt;i style=&quot;&quot;&gt;&lt;b style=&quot;&quot;&gt;3.3V&lt;/b&gt;&lt;/i&gt;&lt;/font&gt;" style="text;html=1;align=center;verticalAlign=middle;resizable=0;points=[];autosize=1;strokeColor=none;fillColor=none;" vertex="1" parent="1">
          <mxGeometry x="372.41" y="190" width="50" height="30" as="geometry" />
        </mxCell>
        <mxCell id="CK8r0wE4NduhVeLigVdj-121" value="&lt;font color=&quot;#ff6666&quot; style=&quot;font-size: 8px;&quot;&gt;datapin&lt;/font&gt;" style="text;html=1;align=center;verticalAlign=middle;resizable=0;points=[];autosize=1;strokeColor=none;fillColor=none;" vertex="1" parent="1">
          <mxGeometry x="365" y="150" width="50" height="30" as="geometry" />
        </mxCell>
        <mxCell id="CK8r0wE4NduhVeLigVdj-122" value="&lt;font color=&quot;#ff6666&quot; style=&quot;font-size: 8px;&quot;&gt;datapin&lt;/font&gt;" style="text;html=1;align=center;verticalAlign=middle;resizable=0;points=[];autosize=1;strokeColor=none;fillColor=none;" vertex="1" parent="1">
          <mxGeometry x="459.91" y="150" width="50" height="30" as="geometry" />
        </mxCell>
        <mxCell id="CK8r0wE4NduhVeLigVdj-124" value="&lt;font color=&quot;#ff6666&quot; style=&quot;font-size: 8px;&quot;&gt;ground&lt;br&gt;pin&lt;/font&gt;" style="text;html=1;align=center;verticalAlign=middle;resizable=0;points=[];autosize=1;strokeColor=none;fillColor=none;" vertex="1" parent="1">
          <mxGeometry x="299.91" y="130" width="50" height="40" as="geometry" />
        </mxCell>
        <mxCell id="CK8r0wE4NduhVeLigVdj-125" value="&lt;font color=&quot;#ff6666&quot; style=&quot;font-size: 8px;&quot;&gt;groundpin&lt;/font&gt;" style="text;html=1;align=center;verticalAlign=middle;resizable=0;points=[];autosize=1;strokeColor=none;fillColor=none;" vertex="1" parent="1">
          <mxGeometry x="239.91" y="260" width="60" height="30" as="geometry" />
        </mxCell>
        <mxCell id="CK8r0wE4NduhVeLigVdj-127" value="&lt;font color=&quot;#ff6666&quot; style=&quot;font-size: 8px;&quot;&gt;groundpin&lt;/font&gt;" style="text;html=1;align=center;verticalAlign=middle;resizable=0;points=[];autosize=1;strokeColor=none;fillColor=none;" vertex="1" parent="1">
          <mxGeometry x="511.78" y="140" width="60" height="30" as="geometry" />
        </mxCell>
        <mxCell id="CK8r0wE4NduhVeLigVdj-128" value="&lt;font color=&quot;#ff6666&quot; style=&quot;font-size: 8px;&quot;&gt;groundpin&lt;/font&gt;" style="text;html=1;align=center;verticalAlign=middle;resizable=0;points=[];autosize=1;strokeColor=none;fillColor=none;" vertex="1" parent="1">
          <mxGeometry x="579.91" y="260" width="60" height="30" as="geometry" />
        </mxCell>
        <mxCell id="CK8r0wE4NduhVeLigVdj-131" value="&lt;font color=&quot;#ff6666&quot; style=&quot;font-size: 12px;&quot;&gt;&lt;i style=&quot;&quot;&gt;&lt;b style=&quot;&quot;&gt;5V&lt;/b&gt;&lt;/i&gt;&lt;/font&gt;" style="text;html=1;align=center;verticalAlign=middle;resizable=0;points=[];autosize=1;strokeColor=none;fillColor=none;" vertex="1" parent="1">
          <mxGeometry x="760" y="290" width="40" height="30" as="geometry" />
        </mxCell>
        <mxCell id="CK8r0wE4NduhVeLigVdj-133" value="&lt;font color=&quot;#ff6666&quot; style=&quot;font-size: 8px;&quot;&gt;Input pin&lt;/font&gt;" style="text;html=1;align=center;verticalAlign=middle;resizable=0;points=[];autosize=1;strokeColor=none;fillColor=none;" vertex="1" parent="1">
          <mxGeometry x="699.91" y="280" width="50" height="30" as="geometry" />
        </mxCell>
        <mxCell id="CK8r0wE4NduhVeLigVdj-134" value="&lt;font color=&quot;#ff6666&quot; style=&quot;font-size: 8px;&quot;&gt;Output pin&lt;/font&gt;" style="text;html=1;align=center;verticalAlign=middle;resizable=0;points=[];autosize=1;strokeColor=none;fillColor=none;" vertex="1" parent="1">
          <mxGeometry x="750" y="210" width="60" height="30" as="geometry" />
        </mxCell>
        <mxCell id="CK8r0wE4NduhVeLigVdj-135" value="&lt;font color=&quot;#ff6666&quot; style=&quot;font-size: 12px;&quot;&gt;&lt;i style=&quot;&quot;&gt;&lt;b style=&quot;&quot;&gt;3.3V&lt;/b&gt;&lt;/i&gt;&lt;/font&gt;" style="text;html=1;align=center;verticalAlign=middle;resizable=0;points=[];autosize=1;strokeColor=none;fillColor=none;" vertex="1" parent="1">
          <mxGeometry x="699.91" y="210" width="50" height="30" as="geometry" />
        </mxCell>
        <mxCell id="CK8r0wE4NduhVeLigVdj-136" value="&lt;font color=&quot;#ff6666&quot; style=&quot;font-size: 8px;&quot;&gt;Vcc&lt;/font&gt;" style="text;html=1;align=center;verticalAlign=middle;resizable=0;points=[];autosize=1;strokeColor=none;fillColor=none;" vertex="1" parent="1">
          <mxGeometry x="521.78" y="70" width="40" height="30" as="geometry" />
        </mxCell>
        <mxCell id="CK8r0wE4NduhVeLigVdj-137" value="&lt;font color=&quot;#ff6666&quot; style=&quot;font-size: 12px;&quot;&gt;&lt;i style=&quot;&quot;&gt;&lt;b style=&quot;&quot;&gt;3.3V&lt;/b&gt;&lt;/i&gt;&lt;/font&gt;" style="text;html=1;align=center;verticalAlign=middle;resizable=0;points=[];autosize=1;strokeColor=none;fillColor=none;" vertex="1" parent="1">
          <mxGeometry x="527.41" y="110" width="50" height="30" as="geometry" />
        </mxCell>
        <mxCell id="CK8r0wE4NduhVeLigVdj-141" value="" style="endArrow=classic;html=1;rounded=0;shape=flexArrow;fillColor=#FF6666;strokeColor=none;width=6.9565217391304355;endSize=6.104347826086957;" edge="1" parent="1">
          <mxGeometry width="50" height="50" relative="1" as="geometry">
            <mxPoint x="500" y="10" as="sourcePoint" />
            <mxPoint x="130" y="540" as="targetPoint" />
            <Array as="points">
              <mxPoint x="130" y="10" />
            </Array>
          </mxGeometry>
        </mxCell>
        <mxCell id="CK8r0wE4NduhVeLigVdj-142" value="&lt;b&gt;&lt;font style=&quot;font-size: 10px;&quot;&gt;Knop&lt;/font&gt;&lt;/b&gt;" style="ellipse;whiteSpace=wrap;html=1;aspect=fixed;fillColor=#FF6666;strokeColor=none;" vertex="1" parent="1">
          <mxGeometry x="352.41" y="10" width="40" height="40" as="geometry" />
        </mxCell>
        <mxCell id="CK8r0wE4NduhVeLigVdj-143" value="&lt;b&gt;&lt;font style=&quot;font-size: 10px;&quot;&gt;Knop&lt;/font&gt;&lt;/b&gt;" style="ellipse;whiteSpace=wrap;html=1;aspect=fixed;fillColor=#FF6666;strokeColor=none;" vertex="1" parent="1">
          <mxGeometry x="409.90999999999997" y="10" width="40" height="40" as="geometry" />
        </mxCell>
        <mxCell id="CK8r0wE4NduhVeLigVdj-144" value="&lt;b&gt;&lt;font style=&quot;font-size: 10px;&quot;&gt;Knop&lt;/font&gt;&lt;/b&gt;" style="ellipse;whiteSpace=wrap;html=1;aspect=fixed;fillColor=#FF6666;strokeColor=none;" vertex="1" parent="1">
          <mxGeometry x="469.90999999999997" y="10" width="40" height="40" as="geometry" />
        </mxCell>
        <mxCell id="CK8r0wE4NduhVeLigVdj-148" value="&lt;font color=&quot;#ff6666&quot; style=&quot;font-size: 8px;&quot;&gt;Input 1&lt;/font&gt;" style="text;html=1;align=center;verticalAlign=middle;resizable=0;points=[];autosize=1;strokeColor=none;fillColor=none;" vertex="1" parent="1">
          <mxGeometry x="492.40999999999997" y="40" width="50" height="30" as="geometry" />
        </mxCell>
        <mxCell id="CK8r0wE4NduhVeLigVdj-149" value="&lt;font color=&quot;#ff6666&quot; style=&quot;font-size: 8px;&quot;&gt;Input 2&lt;/font&gt;" style="text;html=1;align=center;verticalAlign=middle;resizable=0;points=[];autosize=1;strokeColor=none;fillColor=none;" vertex="1" parent="1">
          <mxGeometry x="425" y="40" width="50" height="30" as="geometry" />
        </mxCell>
        <mxCell id="CK8r0wE4NduhVeLigVdj-151" value="&lt;font color=&quot;#ff6666&quot; style=&quot;font-size: 8px;&quot;&gt;Input 3&lt;/font&gt;" style="text;html=1;align=center;verticalAlign=middle;resizable=0;points=[];autosize=1;strokeColor=none;fillColor=none;" vertex="1" parent="1">
          <mxGeometry x="324.90999999999997" y="40" width="50" height="30" as="geometry" />
        </mxCell>
        <mxCell id="8mbKC0PbR0wMGEWIr_28-3" value="" style="group" connectable="0" vertex="1" parent="1">
          <mxGeometry x="512.9100000000001" y="800" width="102" height="102" as="geometry" />
        </mxCell>
        <mxCell id="CK8r0wE4NduhVeLigVdj-78" style="edgeStyle=orthogonalEdgeStyle;rounded=0;orthogonalLoop=1;jettySize=auto;html=1;strokeColor=#FF6666;shape=flexArrow;fillColor=#FF6666;endWidth=6.666666666666667;endSize=5.541666666666667;exitX=0.548;exitY=0.084;exitDx=0;exitDy=0;exitPerimeter=0;" edge="1" parent="8mbKC0PbR0wMGEWIr_28-3" source="8mbKC0PbR0wMGEWIr_28-1" target="8mbKC0PbR0wMGEWIr_28-2">
          <mxGeometry relative="1" as="geometry">
            <Array as="points">
              <mxPoint x="88" y="56" />
              <mxPoint x="88" y="50" />
              <mxPoint x="248" y="50" />
              <mxPoint x="248" y="-260" />
              <mxPoint x="-92" y="-260" />
              <mxPoint x="-92" y="50" />
            </Array>
            <mxPoint x="165.2199999999999" y="50" as="sourcePoint" />
            <mxPoint x="-41.780000000000086" y="60" as="targetPoint" />
          </mxGeometry>
        </mxCell>
        <mxCell id="8mbKC0PbR0wMGEWIr_28-1" value="" style="pointerEvents=1;verticalLabelPosition=bottom;shadow=0;dashed=0;align=center;html=1;verticalAlign=top;shape=mxgraph.electrical.signal_sources.source;aspect=fixed;points=[[0.5,0,0],[1,0.5,0],[0.5,1,0],[0,0.5,0]];elSignalType=dc3;rotation=90;strokeColor=#FF6666;fillColor=#FFFFFF;" vertex="1" parent="8mbKC0PbR0wMGEWIr_28-3">
          <mxGeometry x="-5.684341886080802e-14" width="102" height="102" as="geometry" />
        </mxCell>
        <mxCell id="8mbKC0PbR0wMGEWIr_28-2" value="&lt;font color=&quot;#ff6666&quot;&gt;&lt;b&gt;voeding 5V&lt;/b&gt;&lt;/font&gt;&lt;div&gt;&lt;font color=&quot;#ff6666&quot;&gt;&lt;b&gt;25W&amp;nbsp; 5A&lt;/b&gt;&lt;/font&gt;&lt;/div&gt;" style="text;html=1;align=center;verticalAlign=middle;resizable=0;points=[];autosize=1;strokeColor=none;fillColor=none;" vertex="1" parent="8mbKC0PbR0wMGEWIr_28-3">
          <mxGeometry x="5.999999999999886" y="30" width="90" height="40" as="geometry" />
        </mxCell>
        <mxCell id="8mbKC0PbR0wMGEWIr_28-4" value="" style="group" connectable="0" vertex="1" parent="1">
          <mxGeometry x="180" y="800" width="102" height="102" as="geometry" />
        </mxCell>
        <mxCell id="8mbKC0PbR0wMGEWIr_28-5" value="" style="pointerEvents=1;verticalLabelPosition=bottom;shadow=0;dashed=0;align=center;html=1;verticalAlign=top;shape=mxgraph.electrical.signal_sources.source;aspect=fixed;points=[[0.5,0,0],[1,0.5,0],[0.5,1,0],[0,0.5,0]];elSignalType=dc3;rotation=90;strokeColor=#FF6666;fillColor=#FFFFFF;" vertex="1" parent="8mbKC0PbR0wMGEWIr_28-4">
          <mxGeometry x="-5.684341886080802e-14" width="102" height="102" as="geometry" />
        </mxCell>
        <mxCell id="8mbKC0PbR0wMGEWIr_28-6" value="&lt;font color=&quot;#ff6666&quot;&gt;&lt;b&gt;voeding 5V&lt;/b&gt;&lt;/font&gt;&lt;div&gt;&lt;font color=&quot;#ff6666&quot;&gt;&lt;b&gt;25W&amp;nbsp; 5A&lt;/b&gt;&lt;/font&gt;&lt;/div&gt;" style="text;html=1;align=center;verticalAlign=middle;resizable=0;points=[];autosize=1;strokeColor=none;fillColor=none;" vertex="1" parent="8mbKC0PbR0wMGEWIr_28-4">
          <mxGeometry x="5.999999999999886" y="30" width="90" height="40" as="geometry" />
        </mxCell>
        <mxCell id="8mbKC0PbR0wMGEWIr_28-8" value="" style="endArrow=classic;html=1;rounded=0;shape=flexArrow;entryX=-0.02;entryY=0.506;entryDx=0;entryDy=0;entryPerimeter=0;fillColor=#FF6666;strokeColor=none;exitX=0.5;exitY=0;exitDx=0;exitDy=0;exitPerimeter=0;" edge="1" parent="8mbKC0PbR0wMGEWIr_28-4" source="8mbKC0PbR0wMGEWIr_28-5" target="8mbKC0PbR0wMGEWIr_28-6">
          <mxGeometry width="50" height="50" relative="1" as="geometry">
            <mxPoint x="134.90999999999997" y="50.620000000000005" as="sourcePoint" />
            <mxPoint x="30" y="60" as="targetPoint" />
            <Array as="points">
              <mxPoint x="200" y="50" />
              <mxPoint x="200" y="-100" />
              <mxPoint x="200" y="-260" />
              <mxPoint x="-90" y="-260" />
              <mxPoint x="-90" y="-100" />
              <mxPoint x="-90" y="50" />
            </Array>
          </mxGeometry>
        </mxCell>
        <mxCell id="8mbKC0PbR0wMGEWIr_28-9" value="" style="group" connectable="0" vertex="1" parent="1">
          <mxGeometry x="164.90999999999997" y="630" width="135" height="120" as="geometry" />
        </mxCell>
        <mxCell id="CK8r0wE4NduhVeLigVdj-38" value="" style="verticalLabelPosition=bottom;verticalAlign=top;html=1;shape=mxgraph.basic.rect;fillColor2=none;strokeWidth=1;size=30;indent=100;rotation=90;fillColor=#FF6666;strokeColor=none;" vertex="1" parent="8mbKC0PbR0wMGEWIr_28-9">
          <mxGeometry x="7.500000000000028" y="-7.5" width="120" height="135" as="geometry" />
        </mxCell>
        <mxCell id="CK8r0wE4NduhVeLigVdj-39" value="&lt;font style=&quot;font-size: 14px;&quot; color=&quot;#ff6666&quot;&gt;&lt;b&gt;led&lt;br&gt;strip&lt;/b&gt;&lt;/font&gt;&lt;div&gt;&lt;font style=&quot;font-size: 14px;&quot; color=&quot;#ff6666&quot;&gt;&lt;b&gt;&lt;br&gt;&lt;/b&gt;&lt;/font&gt;&lt;/div&gt;&lt;div&gt;&lt;font style=&quot;font-size: 14px;&quot; color=&quot;#ff6666&quot;&gt;&lt;b&gt;5V&lt;/b&gt;&lt;/font&gt;&lt;/div&gt;" style="text;html=1;align=center;verticalAlign=middle;resizable=0;points=[];autosize=1;strokeColor=none;fillColor=#FFFFFF;" vertex="1" parent="8mbKC0PbR0wMGEWIr_28-9">
          <mxGeometry x="42.50000000000006" y="20" width="50" height="80" as="geometry" />
        </mxCell>
        <mxCell id="8mbKC0PbR0wMGEWIr_28-11" value="" style="endArrow=classic;html=1;rounded=0;shape=flexArrow;strokeColor=none;fillColor=#FF6666;entryX=0.083;entryY=0.133;entryDx=0;entryDy=0;entryPerimeter=0;width=3.846153846153846;endSize=6.5769230769230775;endWidth=9.349112426035502;" edge="1" parent="1" target="CK8r0wE4NduhVeLigVdj-38">
          <mxGeometry width="50" height="50" relative="1" as="geometry">
            <mxPoint x="282" y="540" as="sourcePoint" />
            <mxPoint x="282" y="590" as="targetPoint" />
          </mxGeometry>
        </mxCell>
        <mxCell id="8mbKC0PbR0wMGEWIr_28-12" value="" style="endArrow=classic;html=1;rounded=0;shape=flexArrow;strokeColor=none;fillColor=#FF6666;width=3.846153846153846;endSize=6.5769230769230775;endWidth=9.349112426035502;exitX=0.507;exitY=0.986;exitDx=0;exitDy=0;exitPerimeter=0;" edge="1" parent="1" source="CK8r0wE4NduhVeLigVdj-38">
          <mxGeometry width="50" height="50" relative="1" as="geometry">
            <mxPoint x="150" y="690" as="sourcePoint" />
            <mxPoint x="90" y="690" as="targetPoint" />
          </mxGeometry>
        </mxCell>
        <mxCell id="8mbKC0PbR0wMGEWIr_28-16" value="" style="endArrow=classic;html=1;rounded=0;shape=flexArrow;fillColor=#FF6666;strokeColor=none;" edge="1" parent="1" target="8mbKC0PbR0wMGEWIr_28-1">
          <mxGeometry width="50" height="50" relative="1" as="geometry">
            <mxPoint x="389.91" y="960" as="sourcePoint" />
            <mxPoint x="569" y="900" as="targetPoint" />
            <Array as="points">
              <mxPoint x="568.5699999999999" y="960" />
            </Array>
          </mxGeometry>
        </mxCell>
      </root>
    </mxGraphModel>
  </diagram>
</mxfile>
